<?xml version="1.0" encoding="UTF-8"?>
<svg version="1.1" xmlns="http://www.w3.org/2000/svg" width="256" height="105">
<path d="M0 0 C2.26171875 0.05859375 2.26171875 0.05859375 5 1 C6.52704868 3.38952105 7.67818833 5.50090874 8.8125 8.0625 C9.27946289 9.05733398 9.27946289 9.05733398 9.75585938 10.07226562 C10.5204098 11.7072273 11.2624305 13.3526906 12 15 C12.6813501 14.90912109 13.3627002 14.81824219 14.06469727 14.72460938 C33.34268753 12.27860166 52.51357773 11.66846244 71.9375 11.625 C73.08952911 11.61750732 74.24155823 11.61001465 75.42849731 11.60229492 C91.83556519 11.51483643 107.76276515 12.66240328 124 15 C124.91417694 15.12921844 125.82835388 15.25843689 126.77023315 15.39157104 C142.8971594 17.68265513 158.30754106 21.42015182 173.9375 26 C175.64389648 26.49826294 175.64389648 26.49826294 177.38476562 27.0065918 C184.08072343 29.0040883 190.56811211 31.26697009 197 34 C197 34.99 197 35.98 197 37 C188.74414884 36.48849618 181.32912218 34.1109855 173.5 31.5625 C159.03270631 25.85506955 159.03270631 25.85506955 144.125 26.375 C141.15832976 27.34698597 139.14027533 28 136 28 C136.42049793 31.52307861 136.8644605 35.04282653 137.3125 38.5625 C137.48942383 40.0484668 137.48942383 40.0484668 137.66992188 41.56445312 C138.40317999 47.22370162 139.44076881 51.88870633 142 57 C143.65431544 49.56361117 144.33919269 42.25518382 144.65795898 34.66430664 C144.90362589 29.19274821 144.90362589 29.19274821 146 27 C149.41622347 27.29316103 150.76138978 27.76388831 153.23828125 30.21484375 C153.92277344 31.11332031 154.60726562 32.01179688 155.3125 32.9375 C156.35857422 34.28134766 156.35857422 34.28134766 157.42578125 35.65234375 C159 38 159 38 159 40 C159.5775 39.505 160.155 39.01 160.75 38.5 C163 37 163 37 167 37 C165.63016497 40.16115776 165.0109362 40.9927092 162 43 C161.78785727 45.5766503 162.00535348 48.0132295 162.1875 50.58984375 C162 53 162 53 160.78515625 54.80078125 C158.51523013 56.32565503 157.15155233 56.33942512 154.4375 56.25 C153.65246094 56.23453125 152.86742187 56.2190625 152.05859375 56.203125 C150 56 150 56 148 55 C147.525625 55.804375 147.05125 56.60875 146.5625 57.4375 C145 60 145 60 144 61 C140.8125 61.5625 140.8125 61.5625 137 61 C134.57593655 58.59174566 132.77374436 55.91075997 131 53 C130.525625 53.99 130.05125 54.98 129.5625 56 C127 59 127 59 124.87109375 59.46875 C120.65469166 59.52432037 117.70907909 59.09057185 114 57 C113.649375 57.474375 113.29875 57.94875 112.9375 58.4375 C110.11492366 60.71377124 107.55725845 60.74591011 104 61 C103.01 60.67 102.02 60.34 101 60 C101 61.65 101 63.3 101 65 C98.525 65.495 98.525 65.495 96 66 C95.34 64.68 94.68 63.36 94 62 C93.54625 62.804375 93.0925 63.60875 92.625 64.4375 C91 67 91 67 89 68 C85.6875 68.375 85.6875 68.375 82 68 C79.0625 65.5 79.0625 65.5 77 63 C76.525625 63.804375 76.05125 64.60875 75.5625 65.4375 C74 68 74 68 73 69 C70 69.125 70 69.125 67 69 C66.67 68.67 66.34 68.34 66 68 C65.54625 68.969375 65.0925 69.93875 64.625 70.9375 C63 74 63 74 61 75 C57.625 75.4375 57.625 75.4375 54 75 C46.53159988 67.11668877 45.81920878 54.30509936 46 44 C44.35 44.33 42.7 44.66 41 45 C41 44.01 41 43.02 41 42 C42.65 41.67 44.3 41.34 46 41 C46 39.35 46 37.7 46 36 C47.98 35.34 49.96 34.68 52 34 C52.495 36.475 52.495 36.475 53 39 C54.2375 38.505 54.2375 38.505 55.5 38 C59.5873983 36.83217191 62.76923344 36.8541115 67 37 C67 38.98 67 40.96 67 43 C65.68 43.33 64.36 43.66 63 44 C62.67 43.01 62.34 42.02 62 41 C57.545 41.495 57.545 41.495 53 42 C53.495 43.98 53.495 43.98 54 46 C54.25754791 47.51528514 54.49596584 49.03390244 54.71875 50.5546875 C54.84636719 51.41707031 54.97398438 52.27945313 55.10546875 53.16796875 C55.23566406 54.06128906 55.36585937 54.95460937 55.5 55.875 C56.6855156 63.94756081 56.6855156 63.94756081 58 72 C58.66 72 59.32 72 60 72 C61.44796872 63.26047454 62.29211698 54.86088167 62 46 C63.65 45.67 65.3 45.34 67 45 C67.50314563 47.77029586 68.00263838 50.5411652 68.5 53.3125 C68.64308594 54.09818359 68.78617187 54.88386719 68.93359375 55.69335938 C69.06894531 56.45068359 69.20429687 57.20800781 69.34375 57.98828125 C69.53227539 59.03302612 69.53227539 59.03302612 69.72460938 60.09887695 C70 62 70 62 70 65 C70.66 65 71.32 65 72 65 C73.07124148 59.52938818 74.0271162 54.19837767 74.3125 48.625 C74.64713332 45.00172891 74.99685224 44.0044968 77.1875 40.875 C80.50544192 38.66303872 82.09100181 38.32017423 86 39 C87.875 40.25 87.875 40.25 89 42 C89 43.32 89 44.64 89 46 C87.68 46 86.36 46 85 46 C84.34 45.01 83.68 44.02 83 43 C81.00975209 46.98049581 81.60094158 50.73486282 82.89453125 54.8359375 C83.61661974 56.78021817 84.3593072 58.71700598 85.125 60.64453125 C86 63 86 63 86 65 C86.66 65 87.32 65 88 65 C90.04652388 56.59534369 91.43094185 48.90616844 90.26171875 40.28125 C89.8329532 36.54395026 89.71512958 32.75358665 90 29 C90.33 28.67 90.66 28.34 91 28 C92.65 28 94.3 28 96 28 C96.99 33.445 96.99 33.445 98 39 C98.680625 38.319375 99.36125 37.63875 100.0625 36.9375 C103 35 103 35 106.8125 35.25 C107.864375 35.4975 108.91625 35.745 110 36 C111.5544083 41.73935373 111.5544083 41.73935373 110.05859375 45.140625 C107.99880408 48.46088298 105.83228832 51.30099584 103 54 C105.475 55.485 105.475 55.485 108 57 C110.71470105 53.57711607 111.22866906 50.79988108 111.5 46.5625 C111.86659845 41.01115204 112.97592386 37.02407614 117 33 C123.57692308 33.57692308 123.57692308 33.57692308 125 35 C125.42722169 40.21210461 125.42722169 40.21210461 125 43 C123.68671343 44.35308313 122.35500919 45.68870078 121 47 C121.06911332 50.38655269 121.37935631 52.25522758 123.5625 54.875 C124.036875 55.24625 124.51125 55.6175 125 56 C125.28875 55.2575 125.5775 54.515 125.875 53.75 C127 51 127 51 128.09375 49.34375 C129.45485435 45.82365254 128.95023096 42.43161447 128.625 38.75 C128.56828125 38.00492188 128.5115625 37.25984375 128.453125 36.4921875 C128.31223742 34.66064892 128.15748116 32.83018648 128 31 C126.35 30.67 124.7 30.34 123 30 C123 29.34 123 28.68 123 28 C123.804375 27.79375 124.60875 27.5875 125.4375 27.375 C126.283125 26.92125 127.12875 26.4675 128 26 C128.7015185 22.95833157 128.7015185 22.95833157 129 20 C126.04170212 19.68716152 123.08336291 19.37472243 120.125 19.0625 C119.30257812 18.97548828 118.48015625 18.88847656 117.6328125 18.79882812 C115.94018216 18.62030852 114.24738633 18.44335229 112.55444336 18.26782227 C110.90356328 18.09473468 109.25326804 17.91593084 107.60375977 17.73022461 C100.64094827 16.97307453 93.6852402 16.67771505 86.6875 16.4375 C85.55376953 16.39431641 84.42003906 16.35113281 83.25195312 16.30664062 C70.87245767 15.86224848 58.66763854 15.93879567 46.3125 16.875 C45.10239258 16.96378418 43.89228516 17.05256836 42.64550781 17.14404297 C33.06814805 17.8685202 23.53075092 18.81495954 14 20 C14.26554687 20.79921875 14.53109375 21.5984375 14.8046875 22.421875 C19.48732022 36.98247019 20.80247082 49.87211994 19 65 C19.23074219 63.86820313 19.46148437 62.73640625 19.69921875 61.5703125 C20.02751473 60.08829065 20.35700421 58.60653283 20.6875 57.125 C20.83638672 56.37863281 20.98527344 55.63226563 21.13867188 54.86328125 C21.63671875 52.6953125 21.63671875 52.6953125 23 49 C25.64453125 47.4921875 25.64453125 47.4921875 28 47 C29.75734451 51.97361654 31.32584613 56.7415998 32 62 C32.99 60.68 33.98 59.36 35 58 C36.485 58.495 36.485 58.495 38 59 C37.01 61.97 37.01 61.97 36 65 C35.34 65 34.68 65 34 65 C33.82984375 66.07378906 33.6596875 67.14757812 33.484375 68.25390625 C33.24029465 69.69022523 32.99546271 71.12641662 32.75 72.5625 C32.64042969 73.26697266 32.53085938 73.97144531 32.41796875 74.69726562 C31.51179662 79.87198541 29.91409896 83.61190912 27 88 C23.88122044 89.55938978 21.42744229 89.3607834 18 89 C15.56723638 86.41518865 15.05239286 84.76842863 14.8125 81.25 C16.39428128 76.92091438 19.08297575 74.30923908 22.28515625 71.05078125 C24.32073852 69.06197451 24.32073852 69.06197451 24 66 C23.608125 66.804375 23.21625 67.60875 22.8125 68.4375 C21 71 21 71 18.3125 71.8125 C17.549375 71.874375 16.78625 71.93625 16 72 C15.90976563 72.81984375 15.81953125 73.6396875 15.7265625 74.484375 C14.84310566 78.75916617 13.25664845 82.33114065 11.375 86.25 C11.01744629 86.99564209 10.65989258 87.74128418 10.29150391 88.50952148 C3.83662477 101.67764621 3.83662477 101.67764621 0 105 C-3.2109375 105.24609375 -3.2109375 105.24609375 -6 105 C-5.6596875 104.51273437 -5.319375 104.02546875 -4.96875 103.5234375 C-0.2234303 96.58214538 3.89272376 89.32846497 8 82 C7.38125 81.896875 6.7625 81.79375 6.125 81.6875 C4 81 4 81 2 78 C1.57033741 76.09440933 1.22377358 74.16944648 0.9296875 72.23828125 C0.75566406 71.12001953 0.58164062 70.00175781 0.40234375 68.84960938 C0.22832031 67.68236328 0.05429687 66.51511719 -0.125 65.3125 C-0.30675781 64.13365234 -0.48851562 62.95480469 -0.67578125 61.74023438 C-1.12385202 58.8277744 -1.56497236 55.9144319 -2 53 C-2.99 53.33 -3.98 53.66 -5 54 C-5.99455909 56.98367726 -6.19559632 59.2004192 -6.31640625 62.32421875 C-6.37924805 63.86625977 -6.37924805 63.86625977 -6.44335938 65.43945312 C-6.48267578 66.51130859 -6.52199219 67.58316406 -6.5625 68.6875 C-6.62727539 70.31268555 -6.62727539 70.31268555 -6.69335938 71.97070312 C-6.79946838 74.64700791 -6.90152361 77.32340526 -7 80 C-8.32 80 -9.64 80 -11 80 C-11.17015625 79.28457031 -11.3403125 78.56914063 -11.515625 77.83203125 C-13.39040081 70.12351157 -15.59791462 62.55986263 -18 55 C-22.72631016 59.72631016 -22.10158852 68.80236383 -22.13623047 75.2043457 C-22.1201301 78.1370632 -22.07209451 81.06815675 -22 84 C-23.98 84.495 -23.98 84.495 -26 85 C-32.4059825 75.39102625 -31.1741099 60.08499674 -31 49 C-28.525 48.505 -28.525 48.505 -26 48 C-25.34 50.31 -24.68 52.62 -24 55 C-23.443125 54.175 -22.88625 53.35 -22.3125 52.5 C-20 50 -20 50 -17.5 49.3125 C-15 50 -15 50 -12.6875 53 C-12.130625 53.99 -11.57375 54.98 -11 56 C-10.566875 55.236875 -10.13375 54.47375 -9.6875 53.6875 C-6.92 49.28 -6.92 49.28 -5 48 C-2 48 -2 48 1 49 C3.52755574 52.44246345 4.45554172 55.3115223 4.94921875 59.51953125 C5.07490234 60.54111328 5.20058594 61.56269531 5.33007812 62.61523438 C5.50700195 64.19788086 5.50700195 64.19788086 5.6875 65.8125 C5.81705078 66.88693359 5.94660156 67.96136719 6.08007812 69.06835938 C6.39721684 71.711182 6.70347556 74.35479857 7 77 C9.15646921 76.14708106 9.15646921 76.14708106 10.1875 74 C11.12561126 70.5362046 10.79699532 68.19587337 10.29296875 64.69140625 C9.72594326 59.4823321 9.92720649 54.23304441 10 49 C11.65 48.67 13.3 48.34 15 48 C13.97362795 38.87069073 12.17435051 30.61660405 9 22 C-0.24744056 22.39773938 -8.9519344 24.10856984 -17.92504883 26.21875 C-20.16460075 26.74462299 -22.40706409 27.25612455 -24.65039062 27.765625 C-33.0875494 29.70613574 -41.40634828 31.90429228 -49.68583679 34.43817139 C-54.81102594 36 -54.81102594 36 -57 36 C-57 34.35 -57 32.7 -57 31 C-10.63053485 16.40459732 -10.63053485 16.40459732 7 17 C6.4946875 15.94039062 5.989375 14.88078125 5.46875 13.7890625 C4.81229869 12.40113686 4.15605967 11.01311081 3.5 9.625 C3.16613281 8.92632812 2.83226562 8.22765625 2.48828125 7.5078125 C0 2.2265625 0 2.2265625 0 0 Z M135 21 C135.33 21.99 135.66 22.98 136 24 C137.65 24 139.3 24 141 24 C141.33 23.34 141.66 22.68 142 22 C139.69 21.67 137.38 21.34 135 21 Z M149 36 C149 39.63 149 43.26 149 47 C150.65 45.68 152.3 44.36 154 43 C152.02 39.535 152.02 39.535 150 36 C149.67 36 149.34 36 149 36 Z M120 38 C118.70366379 39.06645115 118.70366379 39.06645115 118.9375 41.5625 C118.958125 42.366875 118.97875 43.17125 119 44 C119.66 43.01 120.32 42.02 121 41 C120.67 40.01 120.34 39.02 120 38 Z M104 39 C101.38103911 41.82847776 100.5260925 44.21213403 100 48 C102.4932534 47.00269864 103.77467439 46.34925469 105.25 44.0625 C106.17087153 41.89587516 106.17087153 41.89587516 106 39 C105.34 39 104.68 39 104 39 Z M154 47 C152.99782936 50.58327753 152.99782936 50.58327753 154 54 C154.66 54 155.32 54 156 54 C156 52.02 156 50.04 156 48 C155.34 47.67 154.68 47.34 154 47 Z M23 76 C21.37492804 78.8331162 21.37492804 78.8331162 20 82 C20.33 82.99 20.66 83.98 21 85 C21.66 85 22.32 85 23 85 C23.66 82.03 24.32 79.06 25 76 C24.34 76 23.68 76 23 76 Z " fill="#D30609" transform="translate(57,0)"/>
<path d="M0 0 C1.65 0 3.3 0 5 0 C5.495 0.99 5.495 0.99 6 2 C10.29 2 14.58 2 19 2 C18.67 2.99 18.34 3.98 18 5 C14.04 5.66 10.08 6.32 6 7 C6.42490173 10.52276683 6.86444021 14.04266709 7.3125 17.5625 C7.48942383 19.0484668 7.48942383 19.0484668 7.66992188 20.56445312 C8.40317999 26.22370162 9.44076881 30.88870633 12 36 C13.65431544 28.56361117 14.33919269 21.25518382 14.65795898 13.66430664 C14.90362589 8.19274821 14.90362589 8.19274821 16 6 C19.41622347 6.29316103 20.76138978 6.76388831 23.23828125 9.21484375 C23.92277344 10.11332031 24.60726562 11.01179688 25.3125 11.9375 C26.00988281 12.83339844 26.70726562 13.72929688 27.42578125 14.65234375 C29 17 29 17 29 19 C29.5775 18.505 30.155 18.01 30.75 17.5 C33 16 33 16 37 16 C35.63016497 19.16115776 35.0109362 19.9927092 32 22 C31.78785727 24.5766503 32.00535348 27.0132295 32.1875 29.58984375 C32 32 32 32 30.78515625 33.80078125 C28.51523013 35.32565503 27.15155233 35.33942512 24.4375 35.25 C23.65246094 35.23453125 22.86742187 35.2190625 22.05859375 35.203125 C20 35 20 35 18 34 C17.525625 34.804375 17.05125 35.60875 16.5625 36.4375 C15 39 15 39 14 40 C10.8125 40.5625 10.8125 40.5625 7 40 C4.57593655 37.59174566 2.77374436 34.91075997 1 32 C0.525625 32.99 0.05125 33.98 -0.4375 35 C-3 38 -3 38 -5.12890625 38.46875 C-9.34530834 38.52432037 -12.29092091 38.09057185 -16 36 C-16.350625 36.474375 -16.70125 36.94875 -17.0625 37.4375 C-19.88507634 39.71377124 -22.44274155 39.74591011 -26 40 C-26.99 39.67 -27.98 39.34 -29 39 C-29 40.65 -29 42.3 -29 44 C-31.475 44.495 -31.475 44.495 -34 45 C-34.66 43.68 -35.32 42.36 -36 41 C-36.45375 41.804375 -36.9075 42.60875 -37.375 43.4375 C-39 46 -39 46 -41 47 C-44.3125 47.375 -44.3125 47.375 -48 47 C-50.9375 44.5 -50.9375 44.5 -53 42 C-53.474375 42.804375 -53.94875 43.60875 -54.4375 44.4375 C-56 47 -56 47 -57 48 C-60 48.125 -60 48.125 -63 48 C-63.495 47.505 -63.495 47.505 -64 47 C-64.45375 47.969375 -64.9075 48.93875 -65.375 49.9375 C-67 53 -67 53 -69 54 C-72.375 54.4375 -72.375 54.4375 -76 54 C-83.46840012 46.11668877 -84.18079122 33.30509936 -84 23 C-85.65 23.33 -87.3 23.66 -89 24 C-89 23.01 -89 22.02 -89 21 C-87.35 20.67 -85.7 20.34 -84 20 C-84 18.35 -84 16.7 -84 15 C-82.02 14.34 -80.04 13.68 -78 13 C-77.67 14.65 -77.34 16.3 -77 18 C-76.175 17.67 -75.35 17.34 -74.5 17 C-70.4126017 15.83217191 -67.23076656 15.8541115 -63 16 C-63 17.98 -63 19.96 -63 22 C-64.32 22.33 -65.64 22.66 -67 23 C-67.33 22.01 -67.66 21.02 -68 20 C-70.97 20.33 -73.94 20.66 -77 21 C-76.67 22.32 -76.34 23.64 -76 25 C-75.74245209 26.51528514 -75.50403416 28.03390244 -75.28125 29.5546875 C-75.08982422 30.84826172 -75.08982422 30.84826172 -74.89453125 32.16796875 C-74.76433594 33.06128906 -74.63414063 33.95460937 -74.5 34.875 C-73.3144844 42.94756081 -73.3144844 42.94756081 -72 51 C-71.34 51 -70.68 51 -70 51 C-68.55203128 42.26047454 -67.70788302 33.86088167 -68 25 C-66.35 24.67 -64.7 24.34 -63 24 C-62.49685437 26.77029586 -61.99736162 29.5411652 -61.5 32.3125 C-61.35691406 33.09818359 -61.21382812 33.88386719 -61.06640625 34.69335938 C-60.93105469 35.45068359 -60.79570313 36.20800781 -60.65625 36.98828125 C-60.53056641 37.68477783 -60.40488281 38.38127441 -60.27539062 39.09887695 C-60 41 -60 41 -60 44 C-59.34 44 -58.68 44 -58 44 C-56.92875852 38.52938818 -55.9728838 33.19837767 -55.6875 27.625 C-55.35286668 24.00172891 -55.00314776 23.0044968 -52.8125 19.875 C-49.49455808 17.66303872 -47.90899819 17.32017423 -44 18 C-42.125 19.25 -42.125 19.25 -41 21 C-41 22.32 -41 23.64 -41 25 C-42.32 25 -43.64 25 -45 25 C-45.66 24.01 -46.32 23.02 -47 22 C-48.99024791 25.98049581 -48.39905842 29.73486282 -47.10546875 33.8359375 C-46.38338026 35.78021817 -45.6406928 37.71700598 -44.875 39.64453125 C-44 42 -44 42 -44 44 C-43.34 44 -42.68 44 -42 44 C-39.95347612 35.59534369 -38.56905815 27.90616844 -39.73828125 19.28125 C-40.1670468 15.54395026 -40.28487042 11.75358665 -40 8 C-39.67 7.67 -39.34 7.34 -39 7 C-37.35 7 -35.7 7 -34 7 C-33.34 10.63 -32.68 14.26 -32 18 C-31.319375 17.319375 -30.63875 16.63875 -29.9375 15.9375 C-27 14 -27 14 -23.1875 14.25 C-22.135625 14.4975 -21.08375 14.745 -20 15 C-18.4455917 20.73935373 -18.4455917 20.73935373 -19.94140625 24.140625 C-22.00119592 27.46088298 -24.16771168 30.30099584 -27 33 C-25.35 33.99 -23.7 34.98 -22 36 C-19.28529895 32.57711607 -18.77133094 29.79988108 -18.5 25.5625 C-18.13340155 20.01115204 -17.02407614 16.02407614 -13 12 C-6.42307692 12.57692308 -6.42307692 12.57692308 -5 14 C-4.57277831 19.21210461 -4.57277831 19.21210461 -5 22 C-6.31328657 23.35308313 -7.64499081 24.68870078 -9 26 C-8.93088668 29.38655269 -8.62064369 31.25522758 -6.4375 33.875 C-5.963125 34.24625 -5.48875 34.6175 -5 35 C-4.71125 34.2575 -4.4225 33.515 -4.125 32.75 C-3 30 -3 30 -1.90625 28.34375 C-0.54514565 24.82365254 -1.04976904 21.43161447 -1.375 17.75 C-1.43171875 17.00492188 -1.4884375 16.25984375 -1.546875 15.4921875 C-1.68776258 13.66064892 -1.84251884 11.83018648 -2 10 C-3.65 9.67 -5.3 9.34 -7 9 C-7 8.34 -7 7.68 -7 7 C-5.824375 6.6596875 -5.824375 6.6596875 -4.625 6.3125 C-1.78125 5.21875 -1.78125 5.21875 -0.6875 2.375 C-0.460625 1.59125 -0.23375 0.8075 0 0 Z M19 15 C19 18.63 19 22.26 19 26 C20.65 24.68 22.3 23.36 24 22 C22.02 18.535 22.02 18.535 20 15 C19.67 15 19.34 15 19 15 Z M-10 17 C-11.29633621 18.06645115 -11.29633621 18.06645115 -11.0625 20.5625 C-11.041875 21.366875 -11.02125 22.17125 -11 23 C-10.34 22.01 -9.68 21.02 -9 20 C-9.33 19.01 -9.66 18.02 -10 17 Z M-26 18 C-28.61896089 20.82847776 -29.4739075 23.21213403 -30 27 C-27.5067466 26.00269864 -26.22532561 25.34925469 -24.75 23.0625 C-23.82912847 20.89587516 -23.82912847 20.89587516 -24 18 C-24.66 18 -25.32 18 -26 18 Z M24 26 C22.99782936 29.58327753 22.99782936 29.58327753 24 33 C24.66 33 25.32 33 26 33 C26 31.02 26 29.04 26 27 C25.34 26.67 24.68 26.34 24 26 Z " fill="#F6F8F2" transform="translate(187,21)"/>
<path d="M0 0 C2.26171875 0.05859375 2.26171875 0.05859375 5 1 C6.52704868 3.38952105 7.67818833 5.50090874 8.8125 8.0625 C9.27946289 9.05733398 9.27946289 9.05733398 9.75585938 10.07226562 C10.5204098 11.7072273 11.2624305 13.3526906 12 15 C12.6813501 14.90912109 13.3627002 14.81824219 14.06469727 14.72460938 C33.34268753 12.27860166 52.51357773 11.66846244 71.9375 11.625 C73.08952911 11.61750732 74.24155823 11.61001465 75.42849731 11.60229492 C91.83556519 11.51483643 107.76276515 12.66240328 124 15 C124.91417694 15.12921844 125.82835388 15.25843689 126.77023315 15.39157104 C142.8971594 17.68265513 158.30754106 21.42015182 173.9375 26 C175.64389648 26.49826294 175.64389648 26.49826294 177.38476562 27.0065918 C184.08072343 29.0040883 190.56811211 31.26697009 197 34 C197 34.99 197 35.98 197 37 C188.76095067 36.49009141 181.37249332 34.1147919 173.5625 31.5625 C165.4399535 28.92342419 157.44158247 26.39606529 149 25 C149 24.34 149 23.68 149 23 C147.7625 23.20625 146.525 23.4125 145.25 23.625 C141.71418624 24.07084692 140.10685333 23.80397935 137 22 C134.67504723 21.61250787 132.34148732 21.27017161 130 21 C129.67 21.66 129.34 22.32 129 23 C129 22.01 129 21.02 129 20 C126.04170212 19.68716152 123.08336291 19.37472243 120.125 19.0625 C119.30257812 18.97548828 118.48015625 18.88847656 117.6328125 18.79882812 C115.94018216 18.62030852 114.24738633 18.44335229 112.55444336 18.26782227 C110.90356328 18.09473468 109.25326804 17.91593084 107.60375977 17.73022461 C100.64094827 16.97307453 93.6852402 16.67771505 86.6875 16.4375 C85.55376953 16.39431641 84.42003906 16.35113281 83.25195312 16.30664062 C70.87245767 15.86224848 58.66763854 15.93879567 46.3125 16.875 C45.10239258 16.96378418 43.89228516 17.05256836 42.64550781 17.14404297 C33.06814805 17.8685202 23.53075092 18.81495954 14 20 C14.26554687 20.79921875 14.53109375 21.5984375 14.8046875 22.421875 C19.48924192 36.98844568 21.57258428 50.00790526 18 65 C17.34 65 16.68 65 16 65 C15.96559814 64.26587891 15.93119629 63.53175781 15.89575195 62.77539062 C15.17699244 48.53838054 14.34715779 35.32707647 9 22 C-0.24744056 22.39773938 -8.9519344 24.10856984 -17.92504883 26.21875 C-20.16460075 26.74462299 -22.40706409 27.25612455 -24.65039062 27.765625 C-33.0875494 29.70613574 -41.40634828 31.90429228 -49.68583679 34.43817139 C-54.81102594 36 -54.81102594 36 -57 36 C-57 34.35 -57 32.7 -57 31 C-10.63053485 16.40459732 -10.63053485 16.40459732 7 17 C6.4946875 15.94039062 5.989375 14.88078125 5.46875 13.7890625 C4.81229869 12.40113686 4.15605967 11.01311081 3.5 9.625 C3.16613281 8.92632812 2.83226562 8.22765625 2.48828125 7.5078125 C0 2.2265625 0 2.2265625 0 0 Z " fill="#686969" transform="translate(57,0)"/>
<path d="M0 0 C2.26171875 0.05859375 2.26171875 0.05859375 5 1 C6.54365573 3.4155077 7.66693722 5.47798805 8.8125 8.0625 C9.864375 10.351875 10.91625 12.64125 12 15 C19.26 14.34 26.52 13.68 34 13 C34 13.66 34 14.32 34 15 C29.38 15.33 24.76 15.66 20 16 C20 16.66 20 17.32 20 18 C20.66 18.33 21.32 18.66 22 19 C18.04 19.495 18.04 19.495 14 20 C14.26554687 20.79921875 14.53109375 21.5984375 14.8046875 22.421875 C19.48924192 36.98844568 21.57258428 50.00790526 18 65 C17.34 65 16.68 65 16 65 C15.96559814 64.26587891 15.93119629 63.53175781 15.89575195 62.77539062 C15.17699244 48.53838054 14.34715779 35.32707647 9 22 C-0.24744056 22.39773938 -8.9519344 24.10856984 -17.92504883 26.21875 C-20.16460075 26.74462299 -22.40706409 27.25612455 -24.65039062 27.765625 C-33.0875494 29.70613574 -41.40634828 31.90429228 -49.68583679 34.43817139 C-54.81102594 36 -54.81102594 36 -57 36 C-57 34.35 -57 32.7 -57 31 C-10.63053485 16.40459732 -10.63053485 16.40459732 7 17 C6.4946875 15.94039062 5.989375 14.88078125 5.46875 13.7890625 C4.81229869 12.40113686 4.15605967 11.01311081 3.5 9.625 C3.16613281 8.92632812 2.83226562 8.22765625 2.48828125 7.5078125 C0 2.2265625 0 2.2265625 0 0 Z " fill="#5D5D5D" transform="translate(57,0)"/>
<path d="M0 0 C3.41622347 0.29316103 4.76138978 0.76388831 7.23828125 3.21484375 C7.92277344 4.11332031 8.60726562 5.01179688 9.3125 5.9375 C10.00988281 6.83339844 10.70726562 7.72929688 11.42578125 8.65234375 C13 11 13 11 13 13 C13.5775 12.505 14.155 12.01 14.75 11.5 C17 10 17 10 21 10 C19.63016497 13.16115776 19.0109362 13.9927092 16 16 C15.78785727 18.5766503 16.00535348 21.0132295 16.1875 23.58984375 C16 26 16 26 14.78515625 27.80078125 C12.51523013 29.32565503 11.15155233 29.33942512 8.4375 29.25 C7.25994141 29.22679687 7.25994141 29.22679687 6.05859375 29.203125 C4 29 4 29 2 28 C1.525625 28.804375 1.05125 29.60875 0.5625 30.4375 C-1 33 -1 33 -2 34 C-3.99958364 34.04080783 -6.00045254 34.04254356 -8 34 C-7.67 32.35 -7.34 30.7 -7 29 C-7.66 29 -8.32 29 -9 29 C-12.88105697 21.23788606 -11.08789053 9.50585002 -11 1 C-10.67 1 -10.34 1 -10 1 C-9.92483154 1.6297876 -9.84966309 2.2595752 -9.7722168 2.90844727 C-9.42149228 5.79456802 -9.05463087 8.67842219 -8.6875 11.5625 C-8.56955078 12.55314453 -8.45160156 13.54378906 -8.33007812 14.56445312 C-7.59682001 20.22370162 -6.55923119 24.88870633 -4 30 C-2.34568456 22.56361117 -1.66080731 15.25518382 -1.34204102 7.66430664 C-1.09637411 2.19274821 -1.09637411 2.19274821 0 0 Z M3 9 C3 12.63 3 16.26 3 20 C4.65 18.68 6.3 17.36 8 16 C6.02 12.535 6.02 12.535 4 9 C3.67 9 3.34 9 3 9 Z M8 20 C6.99782936 23.58327753 6.99782936 23.58327753 8 27 C8.66 27 9.32 27 10 27 C10 25.02 10 23.04 10 21 C9.34 20.67 8.68 20.34 8 20 Z " fill="#F1F1E9" transform="translate(203,27)"/>
<path d="M0 0 C1.67542976 0.28604898 3.34385343 0.61781233 5 1 C5.33 2.98 5.66 4.96 6 7 C6.556875 6.175 7.11375 5.35 7.6875 4.5 C10 2 10 2 12.4453125 1.578125 C15 2 15 2 16.73046875 3.828125 C17.21128906 4.62734375 17.69210938 5.4265625 18.1875 6.25 C18.67605469 7.03890625 19.16460937 7.8278125 19.66796875 8.640625 C20.10753906 9.41921875 20.54710938 10.1978125 21 11 C21.38542969 11.5775 21.77085938 12.155 22.16796875 12.75 C23.49970533 16.35131583 23.20697681 19.94753742 23.125 23.75 C23.11597656 24.54277344 23.10695313 25.33554688 23.09765625 26.15234375 C23.07417012 28.10169281 23.03830137 30.05088575 23 32 C21.68 32 20.36 32 19 32 C18.82984375 31.28457031 18.6596875 30.56914063 18.484375 29.83203125 C16.60959919 22.12351157 14.40208538 14.55986263 12 7 C7.27368984 11.72631016 7.89841148 20.80236383 7.86376953 27.2043457 C7.8798699 30.1370632 7.92790549 33.06815675 8 36 C6.02 36.495 6.02 36.495 4 37 C-2.2246115 27.66308275 -1.61530232 11.82208204 -1 1 C-0.67 0.67 -0.34 0.34 0 0 Z " fill="#CA080B" transform="translate(27,48)"/>
<path d="M0 0 C3.62916724 1.42010892 4.16450942 2.68494949 5.875 6.125 C6.4909668 8.80395508 6.4909668 8.80395508 6.82421875 11.64453125 C6.94990234 12.66611328 7.07558594 13.68769531 7.20507812 14.74023438 C7.32302734 15.79533203 7.44097656 16.85042969 7.5625 17.9375 C7.69205078 19.01193359 7.82160156 20.08636719 7.95507812 21.19335938 C8.27221684 23.836182 8.57847556 26.47979857 8.875 29.125 C11.05653844 28.30937076 11.05653844 28.30937076 11.6875 26.125 C12.875 24.125 12.875 24.125 15.5 23.375 C16.675625 23.25125 16.675625 23.25125 17.875 23.125 C17.34994156 28.84813698 15.75216742 33.28690433 13.25 38.4375 C12.89244629 39.17863037 12.53489258 39.91976074 12.16650391 40.68334961 C5.68484604 53.82583545 5.68484604 53.82583545 1.875 57.125 C-1.3359375 57.37109375 -1.3359375 57.37109375 -4.125 57.125 C-3.7846875 56.63773438 -3.444375 56.15046875 -3.09375 55.6484375 C1.6515697 48.70714538 5.76772376 41.45346497 9.875 34.125 C9.25625 34.021875 8.6375 33.91875 8 33.8125 C5.875 33.125 5.875 33.125 3.875 30.125 C3.44533741 28.21940933 3.09877358 26.29444648 2.8046875 24.36328125 C2.63066406 23.24501953 2.45664062 22.12675781 2.27734375 20.97460938 C2.10332031 19.80736328 1.92929687 18.64011719 1.75 17.4375 C1.56824219 16.25865234 1.38648438 15.07980469 1.19921875 13.86523438 C0.75114798 10.9527744 0.31002764 8.0394319 -0.125 5.125 C-1.115 5.455 -2.105 5.785 -3.125 6.125 C-3.93063638 8.23084438 -3.93063638 8.23084438 -4.3125 10.6875 C-4.47105469 11.51378906 -4.62960938 12.34007812 -4.79296875 13.19140625 C-4.90253906 13.82949219 -5.01210938 14.46757813 -5.125 15.125 C-6.115 14.465 -7.105 13.805 -8.125 13.125 C-8.77527749 8.16663416 -8.87621328 6.2076309 -6 2.0625 C-3.125 0.125 -3.125 0.125 0 0 Z " fill="#BD0A0D" transform="translate(55.125,47.875)"/>
<path d="M0 0 C0 1.32 0 2.64 0 4 C0.825 3.67 1.65 3.34 2.5 3 C6.5873983 1.83217191 9.76923344 1.8541115 14 2 C14 3.98 14 5.96 14 8 C12.68 8.33 11.36 8.66 10 9 C9.67 8.01 9.34 7.02 9 6 C4.545 6.495 4.545 6.495 0 7 C0.33 8.32 0.66 9.64 1 11 C1.60829409 14.53162782 2.11021004 18.07866918 2.625 21.625 C2.84542969 23.07519531 2.84542969 23.07519531 3.0703125 24.5546875 C3.204375 25.47765625 3.3384375 26.400625 3.4765625 27.3515625 C3.60111816 28.19541504 3.72567383 29.03926758 3.85400391 29.90869141 C4 32 4 32 3 34 C2.34 34 1.68 34 1 34 C-2.46148168 30.11894479 -4.0442551 27.15915317 -4.31640625 21.98828125 C-4.37924805 20.85229492 -4.37924805 20.85229492 -4.44335938 19.69335938 C-4.48267578 18.90767578 -4.52199219 18.12199219 -4.5625 17.3125 C-4.60568359 16.51521484 -4.64886719 15.71792969 -4.69335938 14.89648438 C-4.79927368 12.93118553 -4.90012551 10.96561504 -5 9 C-7.31 9.33 -9.62 9.66 -12 10 C-12 9.01 -12 8.02 -12 7 C-10.35 6.67 -8.7 6.34 -7 6 C-7 4.35 -7 2.7 -7 1 C-3.375 -1.125 -3.375 -1.125 0 0 Z " fill="#E4E4E0" transform="translate(110,35)"/>
<path d="M0 0 C1.65 0 3.3 0 5 0 C5 5.61 5 11.22 5 17 C5.99 17 6.98 17 8 17 C9.32 11.72 10.64 6.44 12 1 C12.33 1 12.66 1 13 1 C13.18451025 10.41002278 13.18451025 10.41002278 12 15 C13.32 14.67 14.64 14.34 16 14 C16 17.3 16 20.6 16 24 C15.01 23.67 14.02 23.34 13 23 C13 21.35 13 19.7 13 18 C12.608125 18.804375 12.21625 19.60875 11.8125 20.4375 C10 23 10 23 7.625 23.8125 C5.07217057 23.99484496 2.55817402 24.01283365 0 24 C-0.96619534 16.3567047 -1.39500885 8.70267259 -1 1 C-0.67 0.67 -0.34 0.34 0 0 Z " fill="#C60A0F" transform="translate(68,48)"/>
<path d="M0 0 C28.8893167 7.80642932 28.8893167 7.80642932 38.1875 10.8125 C39.29480469 11.16957031 40.40210938 11.52664062 41.54296875 11.89453125 C44 13 44 13 46 16 C45.505 16.495 45.505 16.495 45 17 C36.72302505 16.63666384 29.21012731 14.09304502 21.375 11.5625 C20.07837686 11.14959886 18.781503 10.73748424 17.484375 10.32617188 C15.0929149 9.5673908 12.70262478 8.80490408 10.31396484 8.03735352 C6.88981346 6.96550887 3.45362005 5.97192937 0 5 C0 3.35 0 1.7 0 0 Z " fill="#646464" transform="translate(209,20)"/>
<path d="M0 0 C0.33 0 0.66 0 1 0 C1.07516846 0.6297876 1.15033691 1.2595752 1.2277832 1.90844727 C1.57850772 4.79456802 1.94536913 7.67842219 2.3125 10.5625 C2.43044922 11.55314453 2.54839844 12.54378906 2.66992188 13.56445312 C3.40317999 19.22370162 4.44076881 23.88870633 7 29 C9.06627421 19.71179652 9.57800555 10.47266484 10 1 C10.33 1 10.66 1 11 1 C11.33 3.64 11.66 6.28 12 9 C12.33 8.01 12.66 7.02 13 6 C13.66 6 14.32 6 15 6 C15.4367118 15.0981625 15.69324514 22.86389984 11 31 C9 33 9 33 5.875 33.125 C4.92625 33.08375 3.9775 33.0425 3 33 C3.33 31.35 3.66 29.7 4 28 C3.34 28 2.68 28 2 28 C-1.88105697 20.23788606 -0.08789053 8.50585002 0 0 Z " fill="#CFD4CC" transform="translate(192,28)"/>
<path d="M0 0 C6.57692308 0.57692308 6.57692308 0.57692308 8 2 C8.23411162 4.85616178 8.42321327 7.20239537 8 10 C6.70766393 11.37310707 5.37562854 12.71034824 4 14 C3.66551741 17.167832 3.66551741 17.167832 4 20 C3.01 20 2.02 20 1 20 C0.34 17.69 -0.32 15.38 -1 13 C-2.17037448 13.98731518 -2.17037448 13.98731518 -2.375 15.8125 C-3.10835457 18.37924099 -4.36513151 19.91488698 -6 22 C-5.91224337 19.79095369 -5.80405633 17.58271407 -5.6875 15.375 C-5.62949219 14.14523438 -5.57148438 12.91546875 -5.51171875 11.6484375 C-4.84260719 6.87782531 -3.41943206 3.41943206 0 0 Z M3 5 C1.70366379 6.06645115 1.70366379 6.06645115 1.9375 8.5625 C1.958125 9.366875 1.97875 10.17125 2 11 C2.66 10.01 3.32 9.02 4 8 C3.67 7.01 3.34 6.02 3 5 Z " fill="#F3F0E5" transform="translate(174,33)"/>
<path d="M0 0 C0.99 0.495 0.99 0.495 2 1 C2 1.66 2 2.32 2 3 C2.66 3 3.32 3 4 3 C12.4729064 34.05418719 12.4729064 34.05418719 7 45 C6.34 45 5.68 45 5 45 C4.95512451 44.23969482 4.91024902 43.47938965 4.86401367 42.69604492 C4.65040335 39.19235687 4.41905821 35.69004588 4.1875 32.1875 C4.08211914 30.3940918 4.08211914 30.3940918 3.97460938 28.56445312 C3.51796728 21.86094715 2.65138295 15.73467637 0.6328125 9.31640625 C-0.24696778 6.09597598 -0.22101294 3.31519403 0 0 Z " fill="#636363" transform="translate(68,20)"/>
<path d="M0 0 C0.99 0 1.98 0 3 0 C2.47494156 5.72313698 0.87716742 10.16190433 -1.625 15.3125 C-1.98255371 16.05363037 -2.34010742 16.79476074 -2.70849609 17.55834961 C-9.19015396 30.70083545 -9.19015396 30.70083545 -13 34 C-16.2109375 34.24609375 -16.2109375 34.24609375 -19 34 C-18.67128906 33.52433594 -18.34257813 33.04867187 -18.00390625 32.55859375 C-11.0290418 22.29476883 -3.98107129 11.83185523 0 0 Z " fill="#626063" transform="translate(70,71)"/>
<path d="M0 0 C0.66 0 1.32 0 2 0 C2.16435547 1.75376953 2.16435547 1.75376953 2.33203125 3.54296875 C2.49154721 5.09121194 2.65173914 6.63938558 2.8125 8.1875 C2.88275391 8.95642578 2.95300781 9.72535156 3.02539062 10.51757812 C3.51688578 15.09831296 4.31185372 18.14064039 7 22 C7.33 22.99 7.66 23.98 8 25 C8.66 25 9.32 25 10 25 C10.33 24.34 10.66 23.68 11 23 C11.33 24.65 11.66 26.3 12 28 C12.66 28 13.32 28 14 28 C14.66 24.7 15.32 21.4 16 18 C16.66 18.99 17.32 19.98 18 21 C18.66 21 19.32 21 20 21 C18.375 28.75 18.375 28.75 15 31 C11.5625 31.5 11.5625 31.5 8 31 C0.53159988 23.11668877 -0.18079122 10.30509936 0 0 Z " fill="#DAE5E7" transform="translate(103,44)"/>
<path d="M0 0 C0.99 0 1.98 0 3 0 C3.07347656 1.04800781 3.07347656 1.04800781 3.1484375 2.1171875 C3.22320312 3.02726562 3.29796875 3.93734375 3.375 4.875 C3.44460937 5.77992187 3.51421875 6.68484375 3.5859375 7.6171875 C3.79568132 10.17941903 3.79568132 10.17941903 6 12 C6.268125 11.38125 6.53625 10.7625 6.8125 10.125 C8 8 8 8 11 6 C13.6875 5.875 13.6875 5.875 16 6 C16 8.31 16 10.62 16 13 C15.67 12.01 15.34 11.02 15 10 C11.83884224 11.36983503 11.0072908 11.9890638 9 15 C8.34 15 7.68 15 7 15 C6.67 17.31 6.34 19.62 6 22 C5.01 22.33 4.02 22.66 3 23 C3 24.32 3 25.64 3 27 C2.34 27 1.68 27 1 27 C0.97287934 25.56260487 0.95354933 24.12506137 0.9375 22.6875 C0.92589844 21.88699219 0.91429687 21.08648437 0.90234375 20.26171875 C1 18 1 18 2 15 C1.68492783 12.8995333 1.68492783 12.8995333 1.0625 10.6875 C0.17373266 7.03699252 -0.19371817 3.77750439 0 0 Z " fill="#FBFDF9" transform="translate(149,29)"/>
<path d="M0 0 C5.3733849 0.05962147 10.42438213 1.05045734 15.66015625 2.1875 C17.03010742 2.47367188 17.03010742 2.47367188 18.42773438 2.765625 C20.65285712 3.23161929 22.87591901 3.70566975 25.09765625 4.1875 C25.09765625 5.1775 25.09765625 6.1675 25.09765625 7.1875 C25.75765625 7.5175 26.41765625 7.8475 27.09765625 8.1875 C25.44765625 8.5175 23.79765625 8.8475 22.09765625 9.1875 C22.09765625 8.5275 22.09765625 7.8675 22.09765625 7.1875 C20.24140625 7.496875 20.24140625 7.496875 18.34765625 7.8125 C14.81184249 8.25834692 13.20450958 7.99147935 10.09765625 6.1875 C7.77270348 5.80000787 5.43914357 5.45767161 3.09765625 5.1875 C2.76765625 5.8475 2.43765625 6.5075 2.09765625 7.1875 C2.09765625 6.1975 2.09765625 5.2075 2.09765625 4.1875 C-0.87234375 3.8575 -3.84234375 3.5275 -6.90234375 3.1875 C-3.90234375 0.1875 -3.90234375 0.1875 0 0 Z " fill="#686B6D" transform="translate(183.90234375,15.8125)"/>
<path d="M0 0 C1.65 0 3.3 0 5 0 C5.33 0.66 5.66 1.32 6 2 C10.29 2 14.58 2 19 2 C18.67 2.99 18.34 3.98 18 5 C13.619084 6.69262664 8.67375574 7.30153263 4 7 C3.67 8.32 3.34 9.64 3 11 C2.01 10.34 1.02 9.68 0 9 C0 11.31 0 13.62 0 16 C-0.33 16 -0.66 16 -1 16 C-1.33 14.02 -1.66 12.04 -2 10 C-3.65 9.67 -5.3 9.34 -7 9 C-7 8.34 -7 7.68 -7 7 C-5.824375 6.6596875 -5.824375 6.6596875 -4.625 6.3125 C-1.78125 5.21875 -1.78125 5.21875 -0.6875 2.375 C-0.460625 1.59125 -0.23375 0.8075 0 0 Z " fill="#EEF0EF" transform="translate(187,21)"/>
<path d="M0 0 C0.99 0.33 1.98 0.66 3 1 C3.53094431 4.62359479 4.04803488 8.24903186 4.5625 11.875 C4.71396484 12.90753906 4.86542969 13.94007812 5.02148438 15.00390625 C5.16005859 15.99003906 5.29863281 16.97617187 5.44140625 17.9921875 C5.57232666 18.90339355 5.70324707 19.81459961 5.83813477 20.75341797 C6 23 6 23 5 25 C4.34 25 3.68 25 3 25 C-1.31042438 20.16709994 -2.21940449 16.70484827 -2.16796875 10.4296875 C-1.91574265 6.78120758 -1.02024327 3.50708623 0 0 Z " fill="#FAFAF4" transform="translate(108,44)"/>
<path d="M0 0 C0.721875 0.268125 1.44375 0.53625 2.1875 0.8125 C3.4255014 4.38894848 2.93676071 7.14944766 2.1875 10.8125 C1.5275 10.8125 0.8675 10.8125 0.1875 10.8125 C0.5175 8.1725 0.8475 5.5325 1.1875 2.8125 C0.5275 2.8125 -0.1325 2.8125 -0.8125 2.8125 C-1.4725 5.4525 -2.1325 8.0925 -2.8125 10.8125 C-2.1525 11.1425 -1.4925 11.4725 -0.8125 11.8125 C-0.8125 12.4725 -0.8125 13.1325 -0.8125 13.8125 C0.1775 14.1425 1.1675 14.4725 2.1875 14.8125 C1.1875 15.8125 1.1875 15.8125 -2.1875 16.1875 C-5.8125 15.8125 -5.8125 15.8125 -7.8125 13.6875 C-9.05572405 10.11323087 -9.0094562 8.40336859 -7.8125 4.8125 C-3.92586032 -0.26172402 -3.92586032 -0.26172402 0 0 Z " fill="#C40B0D" transform="translate(80.8125,73.1875)"/>
<path d="M0 0 C1.2065625 0.0309375 1.2065625 0.0309375 2.4375 0.0625 C3.7646261 4.0438783 3.50665913 7.91295227 3.4375 12.0625 C4.0975 12.3925 4.7575 12.7225 5.4375 13.0625 C4.4475 13.0625 3.4575 13.0625 2.4375 13.0625 C1.28935003 10.76620006 1.12980191 8.98551914 0.875 6.4375 C0.79121094 5.62023438 0.70742187 4.80296875 0.62109375 3.9609375 C0.56050781 3.33445312 0.49992188 2.70796875 0.4375 2.0625 C0.1075 2.0625 -0.2225 2.0625 -0.5625 2.0625 C-0.418125 3.238125 -0.27375 4.41375 -0.125 5.625 C-0.03863281 6.36105469 0.04773438 7.09710938 0.13671875 7.85546875 C0.43477704 10.27104533 0.43477704 10.27104533 1.1875 13.4375 C1.53001745 18.40400305 0.09069565 22.42047605 -1.5625 27.0625 C-3.14715364 22.30853908 -2.98292888 17.41940845 -3.1875 12.4375 C-3.2390625 11.36242187 -3.290625 10.28734375 -3.34375 9.1796875 C-3.38757813 8.15875 -3.43140625 7.1378125 -3.4765625 6.0859375 C-3.5173291 5.14669434 -3.5580957 4.20745117 -3.60009766 3.23974609 C-3.54499222 0.04864013 -3.2004227 0.07805909 0 0 Z " fill="#C5D1D1" transform="translate(150.5625,27.9375)"/>
<path d="M0 0 C0.66 0 1.32 0 2 0 C2 0.66 2 1.32 2 2 C2.928125 2.12375 2.928125 2.12375 3.875 2.25 C6 3 6 3 7.25 4.875 C8 7 8 7 8 10 C8.66 10 9.32 10 10 10 C10.33 12.31 10.66 14.62 11 17 C9.68 17.33 8.36 17.66 7 18 C6.87625 17.236875 6.7525 16.47375 6.625 15.6875 C6.11897208 12.79732864 6.11897208 12.79732864 4 10 C4 8.68 4 7.36 4 6 C3.34 6 2.68 6 2 6 C1.67 8.97 1.34 11.94 1 15 C0.67 15 0.34 15 0 15 C0 10.05 0 5.1 0 0 Z " fill="#E9F6F7" transform="translate(203,28)"/>
<path d="M0 0 C1.32 0 2.64 0 4 0 C4.144375 1.11375 4.28875 2.2275 4.4375 3.375 C4.78372035 6.82142047 4.78372035 6.82142047 6 9 C5.34 9 4.68 9 4 9 C3.67 11.64 3.34 14.28 3 17 C0.8480563 13.77208445 0.79913557 12.71599191 1 9 C-1.31 9.33 -3.62 9.66 -6 10 C-6 9.01 -6 8.02 -6 7 C-4.35 6.67 -2.7 6.34 -1 6 C-1.020625 5.195625 -1.04125 4.39125 -1.0625 3.5625 C-1 1 -1 1 0 0 Z " fill="#E2EBED" transform="translate(104,35)"/>
<path d="M0 0 C0.99 0 1.98 0 3 0 C3 1.65 3 3.3 3 5 C3.66 5.33 4.32 5.66 5 6 C4.67 10.62 4.34 15.24 4 20 C3.01 19.67 2.02 19.34 1 19 C1 17.02 1 15.04 1 13 C0.34 13 -0.32 13 -1 13 C-0.67 8.71 -0.34 4.42 0 0 Z " fill="#D9050B" transform="translate(30,63)"/>
<path d="M0 0 C0.309375 0.639375 0.61875 1.27875 0.9375 1.9375 C1.8345163 3.93610821 1.8345163 3.93610821 3 5 C3.04080783 6.99958364 3.04254356 9.00045254 3 11 C3.99 11 4.98 11 6 11 C6 12.98 6 14.96 6 17 C4.68 16.67 3.36 16.34 2 16 C1.67 14.68 1.34 13.36 1 12 C0.01 12 -0.98 12 -2 12 C-2 12.66 -2 13.32 -2 14 C-2.66 13.67 -3.32 13.34 -4 13 C-3.2884375 11.7315625 -3.2884375 11.7315625 -2.5625 10.4375 C-0.94278487 6.87412671 -0.38743857 3.87438575 0 0 Z " fill="#F8FCFA" transform="translate(172,42)"/>
<path d="M0 0 C1.875 1.25 1.875 1.25 3 3 C3 4.32 3 5.64 3 7 C1.68 7 0.36 7 -1 7 C-1.66 6.01 -2.32 5.02 -3 4 C-3.66 6.64 -4.32 9.28 -5 12 C-5.33 12 -5.66 12 -6 12 C-8 4.375 -8 4.375 -8 1 C-5.20129973 -0.39935013 -3.09501208 -0.25265405 0 0 Z " fill="#DADCD6" transform="translate(143,39)"/>
<path d="M0 0 C0.33 0 0.66 0 1 0 C1.08040527 0.62455078 1.16081055 1.24910156 1.24365234 1.89257812 C1.61591829 4.76237156 1.99540882 7.63116666 2.375 10.5 C2.50132812 11.48226562 2.62765625 12.46453125 2.7578125 13.4765625 C3.50913741 19.1114993 4.49844383 24.51605574 6 30 C5.34 30 4.68 30 4 30 C4 29.34 4 28.68 4 28 C3.34 28 2.68 28 2 28 C-1.88105697 20.23788606 -0.08789053 8.50585002 0 0 Z " fill="#E2D2B5" transform="translate(192,28)"/>
<path d="M0 0 C0 0.66 0 1.32 0 2 C-5.35298945 4.59474256 -10.03830941 5.63650448 -15.9375 6.1875 C-16.71673828 6.26935547 -17.49597656 6.35121094 -18.29882812 6.43554688 C-20.19820797 6.63364171 -22.09898762 6.81823841 -24 7 C-23.09765625 5.109375 -23.09765625 5.109375 -21 3 C-17.86641027 2.04053452 -14.68302217 1.65778919 -11.4375 1.25 C-10.56158203 1.12496094 -9.68566406 0.99992187 -8.78320312 0.87109375 C-2.56589114 0 -2.56589114 0 0 0 Z " fill="#666666" transform="translate(47,21)"/>
<path d="M0 0 C1.65 0 3.3 0 5 0 C5 3.96 5 7.92 5 12 C4.67 11.01 4.34 10.02 4 9 C3.34 9 2.68 9 2 9 C1.67 9.99 1.34 10.98 1 12 C0.34 12 -0.32 12 -1 12 C-1.02687279 10.18757948 -1.04633715 8.37504767 -1.0625 6.5625 C-1.07410156 5.55316406 -1.08570312 4.54382812 -1.09765625 3.50390625 C-1 1 -1 1 0 0 Z " fill="#B30F12" transform="translate(68,48)"/>
<path d="M0 0 C0.66 3.3 1.32 6.6 2 10 C1.01 10.495 1.01 10.495 0 11 C0 12.98 0 14.96 0 17 C-0.99 17 -1.98 17 -3 17 C-4.74243563 11.44598644 -6.01037577 6.62905215 -4 1 C-2 0 -2 0 0 0 Z M-1 2 C-2.29633621 3.06645115 -2.29633621 3.06645115 -2.0625 5.5625 C-2.041875 6.366875 -2.02125 7.17125 -2 8 C-1.34 7.01 -0.68 6.02 0 5 C-0.33 4.01 -0.66 3.02 -1 2 Z " fill="#E0DCD3" transform="translate(178,36)"/>
<path d="M0 0 C0.66 0 1.32 0 2 0 C3.35384615 6.27692308 3.35384615 6.27692308 1.5625 9.9375 C0.7890625 10.9584375 0.7890625 10.9584375 0 12 C-0.33 11.01 -0.66 10.02 -1 9 C-0.67 8.34 -0.34 7.68 0 7 C-0.66 7 -1.32 7 -2 7 C-2.226875 7.804375 -2.45375 8.60875 -2.6875 9.4375 C-3.3371875 10.7059375 -3.3371875 10.7059375 -4 12 C-6.625 12.8125 -6.625 12.8125 -9 13 C-9 11.35 -9 9.7 -9 8 C-8.34 8 -7.68 8 -7 8 C-6.67 8.99 -6.34 9.98 -6 11 C-5.73445312 10.45730469 -5.46890625 9.91460937 -5.1953125 9.35546875 C-4.66550781 8.28232422 -4.66550781 8.28232422 -4.125 7.1875 C-3.77695313 6.47980469 -3.42890625 5.77210937 -3.0703125 5.04296875 C-2 3 -2 3 0 0 Z " fill="#E6E2D6" transform="translate(165,36)"/>
<path d="M0 0 C0 2.31 0 4.62 0 7 C-0.33 6.01 -0.66 5.02 -1 4 C-4.16115776 5.36983503 -4.9927092 5.9890638 -7 9 C-8.32 8.34 -9.64 7.68 -11 7 C-8.1177836 1.78456079 -6.12393015 -0.33102325 0 0 Z " fill="#F1F1ED" transform="translate(165,35)"/>
<path d="M0 0 C0.66 1.32 1.32 2.64 2 4 C2.99 2.68 3.98 1.36 5 0 C5.99 0.33 6.98 0.66 8 1 C7.34 2.98 6.68 4.96 6 7 C5.34 7 4.68 7 4 7 C3.34 9.64 2.68 12.28 2 15 C1.67 15 1.34 15 1 15 C1 13.02 1 11.04 1 9 C0.34 9 -0.32 9 -1 9 C-0.67 6.03 -0.34 3.06 0 0 Z " fill="#C20A0B" transform="translate(87,58)"/>
<path d="M0 0 C3.08824987 4.63237481 4.21070452 9.03342444 3.625 14.5 C3.41875 15.325 3.2125 16.15 3 17 C2.67 16.01 2.34 15.02 2 14 C1.01 14 0.02 14 -1 14 C-1.22226864 12.23086176 -1.42733873 10.45955629 -1.625 8.6875 C-1.74101562 7.70136719 -1.85703125 6.71523438 -1.9765625 5.69921875 C-2 3 -2 3 0 0 Z " fill="#FDFCE9" transform="translate(135,42)"/>
<path d="M0 0 C0.99 0 1.98 0 3 0 C4.49697302 5.68849748 3.3348044 10.41809068 2 16 C1.34 16 0.68 16 0 16 C0 10.72 0 5.44 0 0 Z " fill="#B55A61" transform="translate(73,49)"/>
<path d="M0 0 C2.3125 0.125 2.3125 0.125 5 1 C7.73064418 5.0488862 8.34512904 8.16819341 8 13 C5 12 5 12 3.61328125 9.78515625 C3.18402344 8.88667969 2.75476562 7.98820313 2.3125 7.0625 C1.87550781 6.16660156 1.43851563 5.27070312 0.98828125 4.34765625 C0 2 0 2 0 0 Z " fill="#666666" transform="translate(57,0)"/>
<path d="M0 0 C1.98 0.99 3.96 1.98 6 3 C6.99 2.34 7.98 1.68 9 1 C9.66 1.33 10.32 1.66 11 2 C11 1.34 11 0.68 11 0 C11.99 0 12.98 0 14 0 C14 0.66 14 1.32 14 2 C10.26837832 5.73162168 7.25290324 6.80544803 2 7 C1.01 6.34 0.02 5.68 -1 5 C-0.34 4.67 0.32 4.34 1 4 C0.67 2.68 0.34 1.36 0 0 Z " fill="#E9E6DF" transform="translate(159,54)"/>
<path d="M0 0 C0.66 0.33 1.32 0.66 2 1 C2 1.66 2 2.32 2 3 C2.66 3 3.32 3 4 3 C4.33 3.99 4.66 4.98 5 6 C4.67 6.66 4.34 7.32 4 8 C4.66 8 5.32 8 6 8 C6 5.69 6 3.38 6 1 C6.66 1.33 7.32 1.66 8 2 C8 3.98 8 5.96 8 8 C6.35 8.33 4.7 8.66 3 9 C2.34 7.68 1.68 6.36 1 5 C-0.485 7.475 -0.485 7.475 -2 10 C-2.66 9.67 -3.32 9.34 -4 9 C-3.34 6.69 -2.68 4.38 -2 2 C-1.34 2 -0.68 2 0 2 C0 1.34 0 0.68 0 0 Z " fill="#DAD3C5" transform="translate(150,57)"/>
<path d="M0 0 C0.66 0 1.32 0 2 0 C2.13277344 1.134375 2.26554687 2.26875 2.40234375 3.4375 C2.58071331 4.95833519 2.75909962 6.47916842 2.9375 8 C3.02451172 8.74378906 3.11152344 9.48757812 3.20117188 10.25390625 C3.77853831 15.17221292 4.38027284 20.08684772 5 25 C0.37355498 18.06033247 -0.49300591 8.21676512 0 0 Z " fill="#A0BDCE" transform="translate(103,44)"/>
<path d="M0 0 C0.66 0 1.32 0 2 0 C1.43454163 3.95820859 0.19097652 6.6659053 -2 10 C-4.375 9.6875 -4.375 9.6875 -7 9 C-9 6 -9 6 -8.625 3.8125 C-8.41875 3.214375 -8.2125 2.61625 -8 2 C-7.67 3.65 -7.34 5.3 -7 7 C-3.42895561 5.12050295 -1.45255699 3.82946843 0 0 Z " fill="#B30C0F" transform="translate(68,72)"/>
<path d="M0 0 C2.3125 0.125 2.3125 0.125 5 1 C6.8125 4.0625 6.8125 4.0625 8 7 C7.01 7.495 7.01 7.495 6 8 C5.34444881 10.52733235 5.34444881 10.52733235 5 13 C2.2946129 8.94191935 0 4.95110601 0 0 Z " fill="#C20E0F" transform="translate(38,50)"/>
<path d="M0 0 C1.32 0.66 2.64 1.32 4 2 C4.49230769 8.4 4.49230769 8.4 2 11.4375 C1.01 12.2109375 1.01 12.2109375 0 13 C-1.0161692 8.37078475 -0.83796731 4.65537393 0 0 Z " fill="#F2FAFC" transform="translate(187,30)"/>
<path d="M0 0 C0.33 0.99 0.66 1.98 1 3 C1.66 3 2.32 3 3 3 C2.67 3.66 2.34 4.32 2 5 C1.01 5.33 0.02 5.66 -1 6 C-0.95875 6.928125 -0.9175 7.85625 -0.875 8.8125 C-1 12 -1 12 -3 15 C-4.32 14.67 -5.64 14.34 -7 14 C-7 13.34 -7 12.68 -7 12 C-6.01 12 -5.02 12 -4 12 C-3.81824219 11.07767578 -3.81824219 11.07767578 -3.6328125 10.13671875 C-3.38144531 8.92435547 -3.38144531 8.92435547 -3.125 7.6875 C-2.96257812 6.88699219 -2.80015625 6.08648437 -2.6328125 5.26171875 C-2 3 -2 3 0 0 Z " fill="#EBF3F0" transform="translate(149,53)"/>
<path d="M0 0 C0 3.1356505 -0.09232758 6.24305245 -0.25 9.375 C-0.29640625 10.49648438 -0.3428125 11.61796875 -0.390625 12.7734375 C-1.09705231 16.51387954 -2.4275995 18.25267627 -5 21 C-4.91224337 18.79095369 -4.80405633 16.58271407 -4.6875 14.375 C-4.62949219 13.14523438 -4.57148438 11.91546875 -4.51171875 10.6484375 C-3.95443436 6.67512741 -2.92414507 2.92414507 0 0 Z " fill="#DCEEF1" transform="translate(173,34)"/>
<path d="M0 0 C1.32 0 2.64 0 4 0 C2.7763004 3.6710988 0.73336366 6.26663634 -2 9 C-3.99958364 9.04080783 -6.00045254 9.04254356 -8 9 C-8 7.02 -8 5.04 -8 3 C-7.34 3.66 -6.68 4.32 -6 5 C-2.90073181 4.67801034 -2.90073181 4.67801034 0 4 C0 2.68 0 1.36 0 0 Z " fill="#E5E0CF" transform="translate(186,50)"/>
<path d="M0 0 C2.31 0 4.62 0 7 0 C7.66 1.65 8.32 3.3 9 5 C8.01 5.99 7.02 6.98 6 8 C5.67 6.68 5.34 5.36 5 4 C2.69 4 0.38 4 -2 4 C-1.34 2.68 -0.68 1.36 0 0 Z " fill="#D1080A" transform="translate(52,50)"/>
<path d="M0 0 C0.66 0 1.32 0 2 0 C2 1.65 2 3.3 2 5 C3.65 5.33 5.3 5.66 7 6 C7 6.66 7 7.32 7 8 C3.625 8.1875 3.625 8.1875 0 8 C-0.66 7.01 -1.32 6.02 -2 5 C-1.125 2.3125 -1.125 2.3125 0 0 Z M9 2 C9.33 2.99 9.66 3.98 10 5 C9.34 5 8.68 5 8 5 C8.33 4.01 8.66 3.02 9 2 Z " fill="#F5F7EF" transform="translate(207,48)"/>
<path d="M0 0 C0.99 0 1.98 0 3 0 C2.98839844 0.59167969 2.97679688 1.18335938 2.96484375 1.79296875 C2.91677614 6.00231785 2.93993117 9.8922333 4 14 C3.01 14.495 3.01 14.495 2 15 C-0.35119399 11.47320901 -0.21443452 9.97120515 -0.125 5.8125 C-0.10695313 4.72582031 -0.08890625 3.63914063 -0.0703125 2.51953125 C-0.04710938 1.68808594 -0.02390625 0.85664062 0 0 Z " fill="#D3DFEA" transform="translate(119,46)"/>
<path d="M0 0 C0.99 0 1.98 0 3 0 C2.56744475 5.40694067 1.41778487 8.75366122 -2 13 C-2.66 13 -3.32 13 -4 13 C-3.29666462 10.02277453 -2.41751463 7.14743457 -1.4375 4.25 C-1.16808594 3.45078125 -0.89867188 2.6515625 -0.62109375 1.828125 C-0.41613281 1.22484375 -0.21117188 0.6215625 0 0 Z " fill="#C45964" transform="translate(70,71)"/>
<path d="M0 0 C0.66 0 1.32 0 2 0 C2.375 2.6875 2.375 2.6875 2 6 C0.18573316 8.16704095 -1.61948534 9.38125003 -4 11 C-4.66 11 -5.32 11 -6 11 C-6.33 9.35 -6.66 7.7 -7 6 C-6.21625 5.7525 -5.4325 5.505 -4.625 5.25 C-1.67682892 3.84610901 -1.0975223 2.99324263 0 0 Z " fill="#F7F6EC" transform="translate(163,43)"/>
<path d="M0 0 C0.33 0.99 0.66 1.98 1 3 C1.66 3 2.32 3 3 3 C4.28317892 6.84953676 4.06643637 9.94738135 4 14 C3.01 14.495 3.01 14.495 2 15 C0.875 9.25 0.875 9.25 2 7 C0.68 7.33 -0.64 7.66 -2 8 C-2 7.34 -2 6.68 -2 6 C-1.34 6 -0.68 6 0 6 C0 4.02 0 2.04 0 0 Z " fill="#D6050D" transform="translate(69,54)"/>
<path d="M0 0 C3.41622347 0.29316103 4.76138978 0.76388831 7.23828125 3.21484375 C7.92277344 4.11332031 8.60726562 5.01179688 9.3125 5.9375 C10.00988281 6.83339844 10.70726562 7.72929688 11.42578125 8.65234375 C13 11 13 11 13 13 C13.66 13.33 14.32 13.66 15 14 C13.68 14 12.36 14 11 14 C11 13.01 11 12.02 11 11 C10.01 11 9.02 11 8 11 C7.566875 9.865625 7.13375 8.73125 6.6875 7.5625 C6.130625 6.386875 5.57375 5.21125 5 4 C4.01 3.67 3.02 3.34 2 3 C2 2.34 2 1.68 2 1 C1.34 0.67 0.68 0.34 0 0 Z " fill="#D7CAB7" transform="translate(203,27)"/>
<path d="M0 0 C0.99 0.33 1.98 0.66 3 1 C3.33 4.63 3.66 8.26 4 12 C2.68 11.67 1.36 11.34 0 11 C0 7.37 0 3.74 0 0 Z " fill="#705F61" transform="translate(73,38)"/>
<path d="M0 0 C0.99 1.485 0.99 1.485 2 3 C2.66 2.01 3.32 1.02 4 0 C5.125 7.75 5.125 7.75 4 10 C3.77721336 11.36972529 3.5931895 12.74603588 3.4375 14.125 C3.2209375 16.043125 3.2209375 16.043125 3 18 C2.67 18 2.34 18 2 18 C1.34 12.06 0.68 6.12 0 0 Z " fill="#5F5C5D" transform="translate(70,30)"/>
<path d="M0 0 C0 0.99 0 1.98 0 3 C0.66 3.33 1.32 3.66 2 4 C0.35 4.33 -1.3 4.66 -3 5 C-3 4.34 -3 3.68 -3 3 C-5.64 3.33 -8.28 3.66 -11 4 C-11 3.01 -11 2.02 -11 1 C-7.32589215 -0.17571451 -3.83070817 -0.07366746 0 0 Z " fill="#78797C" transform="translate(209,20)"/>
<path d="M0 0 C4.62 0 9.24 0 14 0 C13.67 0.99 13.34 1.98 13 3 C8.545 3.495 8.545 3.495 4 4 C4 3.34 4 2.68 4 2 C2.68 2 1.36 2 0 2 C0 1.34 0 0.68 0 0 Z " fill="#E2E0D9" transform="translate(192,23)"/>
<path d="M0 0 C1.8125 0.1875 1.8125 0.1875 4 1 C6.53370588 4.34811134 7 5.70124217 7 10 C6.01 9.67 5.02 9.34 4 9 C4 8.01 4 7.02 4 6 C3.01 6.33 2.02 6.66 1 7 C0.67 4.69 0.34 2.38 0 0 Z " fill="#F2F7F9" transform="translate(119,59)"/>
<path d="M0 0 C0.33 0.66 0.66 1.32 1 2 C1.99 1.67 2.98 1.34 4 1 C2.94124926 4.40312738 1.99097846 7.01353231 0 10 C-0.66 10 -1.32 10 -2 10 C-1.125 2.25 -1.125 2.25 0 0 Z " fill="#756A6E" transform="translate(65,82)"/>
<path d="M0 0 C0.99 0.33 1.98 0.66 3 1 C3.12375 1.969375 3.2475 2.93875 3.375 3.9375 C3.684375 5.4534375 3.684375 5.4534375 4 7 C4.66 7.33 5.32 7.66 6 8 C6 5.69 6 3.38 6 1 C6.33 1 6.66 1 7 1 C7 3.64 7 6.28 7 9 C5.68 9.33 4.36 9.66 3 10 C0.70366176 6.55549263 0.45983515 4.06187717 0 0 Z " fill="#AC0C11" transform="translate(28,75)"/>
<path d="M0 0 C0.66 0 1.32 0 2 0 C2 1.98 2 3.96 2 6 C2.99 6.33 3.98 6.66 5 7 C5.33 7.99 5.66 8.98 6 10 C4.68 10.33 3.36 10.66 2 11 C-1.1097561 3.32926829 -1.1097561 3.32926829 0 0 Z " fill="#D6050C" transform="translate(59,68)"/>
<path d="M0 0 C3.25696479 0.41755959 4.63443291 0.63443291 7 3 C7 4.32 7 5.64 7 7 C5.68 7 4.36 7 3 7 C2.896875 6.38125 2.79375 5.7625 2.6875 5.125 C2.12474627 2.63473516 2.12474627 2.63473516 -1 1 C-0.67 0.67 -0.34 0.34 0 0 Z " fill="#EDF4ED" transform="translate(139,39)"/>
<path d="M0 0 C0 1.98 0 3.96 0 6 C-1.32 6.33 -2.64 6.66 -4 7 C-4 5.68 -4 4.36 -4 3 C-4.66 3 -5.32 3 -6 3 C-6 2.34 -6 1.68 -6 1 C-4 0 -4 0 0 0 Z " fill="#EDEFEC" transform="translate(124,37)"/>
<path d="M0 0 C-0.33 0.66 -0.66 1.32 -1 2 C-6.51671831 3.52250148 -12.28062226 4.30915555 -18 4 C-12.40185694 0.26790462 -6.54467462 -0.27269478 0 0 Z " fill="#6B6B6B" transform="translate(66,18)"/>
<path d="M0 0 C0.66 0 1.32 0 2 0 C2.33 0.99 2.66 1.98 3 3 C3.99 2.34 4.98 1.68 6 1 C6 2.65 6 4.3 6 6 C5.01 6.495 5.01 6.495 4 7 C3.34444881 9.52733235 3.34444881 9.52733235 3 12 C2.67 12 2.34 12 2 12 C1.34 8.04 0.68 4.08 0 0 Z " fill="#B41012" transform="translate(55,54)"/>
<path d="M0 0 C1.79068573 2.6860286 2.66055791 4.6626589 3.625 7.6875 C3.88539063 8.49574219 4.14578125 9.30398437 4.4140625 10.13671875 C4.60742188 10.75160156 4.80078125 11.36648437 5 12 C3.0625 11.6875 3.0625 11.6875 1 11 C-0.28317892 7.15046324 -0.06643637 4.05261865 0 0 Z " fill="#E6D9BA" transform="translate(138,53)"/>
<path d="M0 0 C4.455 0.99 4.455 0.99 9 2 C7.68 2.33 6.36 2.66 5 3 C5.99 3.99 6.98 4.98 8 6 C3.545 5.01 3.545 5.01 -1 4 C-0.01 3.67 0.98 3.34 2 3 C2 2.34 2 1.68 2 1 C1.34 0.67 0.68 0.34 0 0 Z " fill="#5C5C5C" transform="translate(231,27)"/>
<path d="M0 0 C3.60654039 2.40436026 3.85452932 3.94679607 5 8 C4.34 7.67 3.68 7.34 3 7 C2.34 8.32 1.68 9.64 1 11 C-0.32053857 8.35892285 -0.64216783 5.92229603 -1 3 C-0.67 2.01 -0.34 1.02 0 0 Z " fill="#CFCCCB" transform="translate(131,56)"/>
<path d="M0 0 C0.33 0 0.66 0 1 0 C1.05416188 1.60379341 1.09286638 3.20811406 1.125 4.8125 C1.14820313 5.70582031 1.17140625 6.59914063 1.1953125 7.51953125 C1 10 1 10 -1 13 C-1.22245393 11.39773045 -1.42746669 9.79303233 -1.625 8.1875 C-1.74101562 7.29417969 -1.85703125 6.40085937 -1.9765625 5.48046875 C-2 3 -2 3 0 0 Z " fill="#F6FDFC" transform="translate(135,42)"/>
<path d="M0 0 C0.33 0.99 0.66 1.98 1 3 C2.32 2.01 3.64 1.02 5 0 C4 2 3 4 2 6 C0.02 6 -1.96 6 -4 6 C-2.68 4.02 -1.36 2.04 0 0 Z " fill="#5C5C5C" transform="translate(55,99)"/>
<path d="M0 0 C-1.98 0.99 -1.98 0.99 -4 2 C-3.34 2.66 -2.68 3.32 -2 4 C-4.31 4.33 -6.62 4.66 -9 5 C-8.67 4.34 -8.34 3.68 -8 3 C-8.66 2.34 -9.32 1.68 -10 1 C-3.71428571 -1.42857143 -3.71428571 -1.42857143 0 0 Z " fill="#565656" transform="translate(17,28)"/>
<path d="M0 0 C0.33 0 0.66 0 1 0 C0.67 2.64 0.34 5.28 0 8 C-1.32 8.33 -2.64 8.66 -4 9 C-3.52418802 7.68628013 -3.04424851 6.37405454 -2.5625 5.0625 C-2.29566406 4.33160156 -2.02882812 3.60070313 -1.75390625 2.84765625 C-1 1 -1 1 0 0 Z " fill="#F1F8F0" transform="translate(131,60)"/>
<path d="M0 0 C0.99 0.33 1.98 0.66 3 1 C3 2.98 3 4.96 3 7 C1.68 6.67 0.36 6.34 -1 6 C-0.67 4.02 -0.34 2.04 0 0 Z " fill="#FAF9EE" transform="translate(108,44)"/>
<path d="M0 0 C0.99 0.99 1.98 1.98 3 3 C2.34 3 1.68 3 1 3 C1 3.66 1 4.32 1 5 C-0.65 5.66 -2.3 6.32 -4 7 C-2.92598892 4.08482708 -2.22189824 2.22189824 0 0 Z " fill="#D0090C" transform="translate(37,50)"/>
<path d="M0 0 C2 3 2 3 2 5 C1.01 5 0.02 5 -1 5 C-1 6.32 -1 7.64 -1 9 C-2.98 9.99 -2.98 9.99 -5 11 C-3.55049545 7.2089881 -1.84827434 3.6125362 0 0 Z " fill="#E2F0EE" transform="translate(187,45)"/>
<path d="M0 0 C1.31157516 2.62315032 0.89649988 4.23033436 0.5625 7.125 C0.46066406 8.03507812 0.35882813 8.94515625 0.25390625 9.8828125 C0.12822266 10.93082031 0.12822266 10.93082031 0 12 C-0.66 11.67 -1.32 11.34 -2 11 C-1.85957123 9.35369672 -1.71250671 7.70795821 -1.5625 6.0625 C-1.48128906 5.14597656 -1.40007812 4.22945312 -1.31640625 3.28515625 C-1 1 -1 1 0 0 Z " fill="#B9CCDD" transform="translate(133,43)"/>
<path d="M0 0 C1.32 0.66 2.64 1.32 4 2 C3.690625 2.598125 3.38125 3.19625 3.0625 3.8125 C1.89790296 6.08956772 1.89790296 6.08956772 1 9 C0.67 9 0.34 9 0 9 C0 7.35 0 5.7 0 4 C-0.99 3.67 -1.98 3.34 -3 3 C-2.01 2.01 -1.02 1.02 0 0 Z " fill="#D5D4CE" transform="translate(209,44)"/>
<path d="M0 0 C2.475 0.99 2.475 0.99 5 2 C5.33 4.31 5.66 6.62 6 9 C4.68 9.33 3.36 9.66 2 10 C2.66 8.02 3.32 6.04 4 4 C3.01 3.67 2.02 3.34 1 3 C0.67 2.01 0.34 1.02 0 0 Z " fill="#F6FDFE" transform="translate(208,36)"/>
<path d="M0 0 C0.66 0 1.32 0 2 0 C2.33 2.97 2.66 5.94 3 9 C2.01 9 1.02 9 0 9 C0 6.03 0 3.06 0 0 Z " fill="#A3B9C9" transform="translate(147,29)"/>
<path d="M0 0 C0.66 0 1.32 0 2 0 C2.125 7.625 2.125 7.625 1 11 C0.34 10.67 -0.32 10.34 -1 10 C-1.02689216 8.52093108 -1.04634621 7.04172517 -1.0625 5.5625 C-1.07410156 4.73878906 -1.08570312 3.91507812 -1.09765625 3.06640625 C-1 1 -1 1 0 0 Z " fill="#BC0B0E" transform="translate(69,61)"/>
<path d="M0 0 C0.33 0 0.66 0 1 0 C1.08167446 1.41569064 1.13949698 2.83276805 1.1875 4.25 C1.22230469 5.03890625 1.25710937 5.8278125 1.29296875 6.640625 C0.93578688 9.51712968 -0.11751718 10.84576769 -2 13 C-1.85851011 11.3954444 -1.71164314 9.79136233 -1.5625 8.1875 C-1.48128906 7.29417969 -1.40007812 6.40085937 -1.31640625 5.48046875 C-1 3 -1 3 0 0 Z " fill="#B80C11" transform="translate(80,49)"/>
<path d="M0 0 C0.66 0 1.32 0 2 0 C1.44271087 3.34373475 0.64826111 6.03312999 -1 9 C-1.33 9 -1.66 9 -2 9 C-1.125 1.125 -1.125 1.125 0 0 Z " fill="#B21625" transform="translate(68,72)"/>
<path d="M0 0 C2.375 0.3125 2.375 0.3125 5 1 C5.66 1.99 6.32 2.98 7 4 C4.36 3.67 1.72 3.34 -1 3 C-0.67 2.01 -0.34 1.02 0 0 Z " fill="#7C7777" transform="translate(190,18)"/>
<path d="M0 0 C0.99 0.33 1.98 0.66 3 1 C2.34 2.65 1.68 4.3 1 6 C-0.32 6 -1.64 6 -3 6 C-1.125 1.125 -1.125 1.125 0 0 Z " fill="#C01115" transform="translate(92,58)"/>
<path d="M0 0 C0.33 0 0.66 0 1 0 C1.36717663 7.4659249 1.36717663 7.4659249 -0.375 10 C-2 11 -2 11 -4 11 C-3.67 10.01 -3.34 9.02 -3 8 C-2.34 8 -1.68 8 -1 8 C-0.67 5.36 -0.34 2.72 0 0 Z " fill="#D6CDBA" transform="translate(218,45)"/>
<path d="M0 0 C1.2065625 0.0309375 1.2065625 0.0309375 2.4375 0.0625 C2.7675 1.0525 3.0975 2.0425 3.4375 3.0625 C1.625 3.75 1.625 3.75 -0.5625 4.0625 C-2.3125 2.625 -2.3125 2.625 -3.5625 1.0625 C-2.5625 0.0625 -2.5625 0.0625 0 0 Z " fill="#6A6A6C" transform="translate(220.5625,23.9375)"/>
<path d="M0 0 C0.66 0 1.32 0 2 0 C1.34 2.64 0.68 5.28 0 8 C-0.99 8 -1.98 8 -3 8 C-2.01 5.36 -1.02 2.72 0 0 Z " fill="#E9E4CB" transform="translate(121,65)"/>
<path d="M0 0 C1.0326802 2.78823655 1.04509293 3.8677274 0.0625 6.75 C-0.288125 7.4925 -0.63875 8.235 -1 9 C-1.66 9 -2.32 9 -3 9 C-2.30058404 5.85262818 -1.23921302 2.97411124 0 0 Z " fill="#D26974" transform="translate(69,75)"/>
<path d="M0 0 C0.99 0 1.98 0 3 0 C2.75 1.875 2.75 1.875 2 4 C-0.0625 5.25 -0.0625 5.25 -2 6 C-1.34 4.02 -0.68 2.04 0 0 Z " fill="#DCEAEF" transform="translate(187,21)"/>
<path d="M0 0 C2.31 0.33 4.62 0.66 7 1 C5.68 1.99 4.36 2.98 3 4 C1.68 3.34 0.36 2.68 -1 2 C-0.67 1.34 -0.34 0.68 0 0 Z " fill="#6C6C6C" transform="translate(164,14)"/>
</svg>
